<?xml version="1.0" encoding="UTF-8"?>
<!-- Generator: Adobe Illustrator 21.0.0, SVG Export Plug-In . SVG Version: 6.00 Build 0)  -->
<svg version="1.1" id="Layer_1" xmlns="http://www.w3.org/2000/svg" xmlns:xlink="http://www.w3.org/1999/xlink" x="0px" y="0px" viewBox="0 0 621.7 156.8" style="enable-background:new 0 0 621.7 156.8;" xml:space="preserve">
<style type="text/css">
	.st0{fill:#E53C25;}
	.st1{fill:#F37721;}
	.st2{fill:#F9A65F;}
	.st3{fill:#FCBB5E;}
	.st4{fill:#FCE682;}
	.st5{fill:#4B4F54;}
	.st6{fill:#0098CE;}
</style>
<g>
	<g>
		<g>
			<rect x="503.1" y="95.1" class="st0" width="115.4" height="15.9"/>
			<rect x="378.2" y="95.1" class="st1" width="115.4" height="15.9"/>
			<rect x="253.2" y="95.1" class="st2" width="115.4" height="15.9"/>
			<rect x="128.2" y="95.1" class="st3" width="115.4" height="15.9"/>
			<rect x="3.2" y="95.1" class="st4" width="115.4" height="15.9"/>
		</g>
		<g>
			<g>
				<g>
					<path class="st1" d="M47.8,60c0.8-0.8,1.9-1.2,3.3-1.2h45.6c6.8,0,10.7-0.6,11.7-1.8c2.8-1.9,4.3-4.2,4.3-7       c0-3.5-2.1-6.1-6.2-7.9c-0.9-0.5-4.1-0.8-9.7-0.8H66c-9.7,0-16-4.5-19-13.6c-0.4-1.8-0.6-3.6-0.6-5.3v-0.2       c0-8.2,3.8-14,11.3-17.5c2.2-0.9,4.7-1.3,7.5-1.3h57.7c1.3,0,2.3,0.4,3.1,1.1c0.8,0.8,1.2,1.9,1.2,3.3v5c0,1.3-0.4,2.3-1.1,3.2       c-0.7,0.9-1.8,1.3-3.3,1.3H73.2c-6,0-9.3,0.6-10,1.9c-0.9,0.7-1.4,1.8-1.4,3.2c0,2.5,1.8,4.1,5.5,4.7c1.3,0.2,3.5,0.3,6.6,0.3       h30.9c9.6,0,16.5,4.4,20.7,13.2c1.2,2.8,1.8,5.9,1.8,9.3v0.3c0,8.6-3.7,15.2-11.1,19.8c-3.3,1.8-7,2.8-11,2.8H51.1       c-1.3,0-2.4-0.4-3.2-1.1c-0.8-0.8-1.2-1.9-1.2-3.3v-5.1C46.6,61.9,47,60.8,47.8,60z"/>
					<path class="st1" d="M137.2,4.7c0.8-0.8,1.9-1.2,3.3-1.2h5.1c1.3,0,2.4,0.4,3.2,1.1c0.8,0.8,1.2,1.9,1.2,3.3v22.5       c0,8.3,0.6,13.2,1.8,14.9c2,4.8,5.5,8.6,10.5,11.2c2.6,1.5,7.3,2.3,14.1,2.3c7.4,0,12.5-1,15.3-3.1c4.6-2.6,7.8-6.6,9.8-12.2       c0.8-1.6,1.2-6.6,1.2-15V7.9c0-1.3,0.4-2.3,1.1-3.2c0.7-0.9,1.8-1.3,3.3-1.3h5c1.3,0,2.4,0.4,3.2,1.1c0.8,0.8,1.2,1.9,1.2,3.3       v31.5c0,10.7-4.6,19.7-13.8,27c-6.1,4.2-12.7,6.3-19.8,6.3h-13.4c-10.3,0-19-4.1-26.1-12.4c-5-6.3-7.5-13.4-7.5-21.3V7.9       C136.1,6.5,136.5,5.5,137.2,4.7z"/>
					<path class="st1" d="M226.5,4.7c0.8-0.8,1.9-1.2,3.3-1.2h6.3c2.9,0,5.5,1.2,7.8,3.6c13.3,12.6,23.4,22.2,30.3,28.7       c6.9,6.5,10.8,10.2,11.6,10.9c1.3,0.8,2.4,1.2,3.3,1.3c2,0,3-2.6,3-7.7V7.9c0-1.3,0.4-2.3,1.1-3.2c0.7-0.9,1.8-1.3,3.3-1.3h5       c1.3,0,2.4,0.4,3.2,1.1c0.8,0.8,1.2,1.9,1.2,3.3v60.4c0,1.3-0.4,2.3-1.1,3.2c-0.8,0.9-1.9,1.3-3.3,1.3h-6c-3.4,0-6.5-1.7-9.3-5       l-40.7-38.4c-1.3-0.7-2.3-1.1-3.1-1.1c-2,0-3,2.5-3,7.6v32.5c0,1.3-0.4,2.3-1.1,3.2c-0.8,0.9-1.9,1.3-3.3,1.3h-5.1       c-1.3,0-2.4-0.4-3.2-1.1c-0.8-0.8-1.2-1.9-1.2-3.3V7.9C225.4,6.5,225.8,5.5,226.5,4.7z"/>
					<path class="st5" d="M313.7,7.5c0-2.3,1.8-4.1,4.1-4.1h37.2c8.6,0,14.6,4.2,17.9,12.5c0.6,2,0.9,4,0.9,6.1v0.7       c0,8.4-4.1,14.3-12.4,17.6c-0.9,0.3-2.6,0.6-5,0.8s-5.6,0.3-9.7,0.3c-2.7,0.4-4.1,1.3-4.1,2.6v0.2c0,1.7,1.9,3.9,5.7,6.6       l21.4,17.9c0.5,0.6,0.8,1.3,0.8,2.2c0,1.1-1.2,1.7-3.7,1.7h-12.2c-3,0-6.1-1.5-9.4-4.7C326.6,52.5,317,44.5,316.5,44       c-1.9-1.7-2.9-4.2-2.9-7.3v-4.2c0-3.4,1.5-5.1,4.6-5.1h28c6.2,0,9.7-0.6,10.5-1.7c1.1-0.8,1.7-1.9,1.7-3.4       c0-2.1-1.2-3.6-3.7-4.4c-0.8-0.4-3.4-0.6-7.7-0.6h-29.3c-2.3,0-4.1-1.8-4.1-4.1L313.7,7.5z"/>
					<path class="st6" d="M315.7,52.7l21,17.8c0.9,0.8,0.4,2.2-0.8,2.2h-21c-0.7,0-1.3-0.6-1.3-1.3V53.7       C313.7,52.6,314.9,52,315.7,52.7z"/>
					<path class="st5" d="M383.6,4.7c0.8-0.8,1.9-1.2,3.3-1.2h5c1.3,0,2.3,0.4,3.1,1.1c0.8,0.8,1.2,1.9,1.2,3.3v60.4       c0,1.3-0.4,2.3-1.1,3.2c-0.7,0.9-1.8,1.3-3.3,1.3h-5c-1.3,0-2.4-0.4-3.2-1.1c-0.8-0.8-1.2-1.9-1.2-3.3V7.9       C382.5,6.5,382.8,5.5,383.6,4.7z"/>
					<path class="st5" d="M406.4,60c0.8-0.8,1.9-1.2,3.3-1.2h45.6c6.8,0,10.7-0.6,11.7-1.8c2.8-1.9,4.3-4.2,4.3-7       c0-3.5-2.1-6.1-6.2-7.9c-0.9-0.5-4.1-0.8-9.7-0.8h-30.7c-9.7,0-16-4.5-19-13.6c-0.4-1.8-0.6-3.6-0.6-5.3v-0.2       c0-8.2,3.8-14,11.3-17.5c2.2-0.9,4.7-1.3,7.5-1.3h57.7c1.3,0,2.3,0.4,3.1,1.1c0.8,0.8,1.2,1.9,1.2,3.3v5c0,1.3-0.4,2.3-1.1,3.2       c-0.7,0.9-1.8,1.3-3.3,1.3h-49.8c-6,0-9.3,0.6-10,1.9c-0.9,0.7-1.4,1.8-1.4,3.2c0,2.5,1.8,4.1,5.5,4.7c1.3,0.2,3.5,0.3,6.6,0.3       h30.9c9.6,0,16.5,4.4,20.7,13.2c1.2,2.8,1.8,5.9,1.8,9.3v0.3c0,8.6-3.7,15.2-11.1,19.8c-3.3,1.8-7,2.8-11,2.8h-54.1       c-1.3,0-2.4-0.4-3.2-1.1c-0.8-0.8-1.2-1.9-1.2-3.3v-5.1C405.2,61.9,405.6,60.8,406.4,60z"/>
					<g>
						<path class="st5" d="M494.7,7.9c0-1.3,0.4-2.4,1.1-3.2c0.8-0.8,1.9-1.2,3.3-1.2h71.7c1.3,0,2.4,0.4,3.2,1.1        c0.8,0.8,1.2,1.9,1.2,3.3v5c0,1.3-0.4,2.3-1.1,3.2c-0.8,0.9-1.9,1.3-3.3,1.3h-71.7c-1.3,0-2.3-0.4-3.2-1.1        c-0.9-0.8-1.3-1.9-1.3-3.3V7.9z M494.7,63.2c0-1.3,0.4-2.4,1.1-3.2c0.8-0.8,1.9-1.2,3.3-1.2h71.7c1.3,0,2.3,0.4,3.2,1.1        c0.9,0.8,1.3,1.9,1.3,3.3v5.1c0,1.2-0.4,2.3-1.1,3.1s-1.9,1.3-3.3,1.3h-71.7c-1.3,0-2.4-0.4-3.2-1.1c-0.8-0.8-1.2-1.9-1.2-3.3        V63.2z"/>
						<path class="st6" d="M494.7,35.4c0-1.3,0.4-2.4,1.1-3.2c0.8-0.8,1.9-1.2,3.3-1.2h41c1.3,0,2.3,0.4,3.2,1.1        c0.9,0.7,1.3,1.8,1.3,3.3v5.1c0,1.3-0.4,2.3-1.1,3.2c-0.8,0.9-1.9,1.3-3.3,1.3h-41c-1.3,0-2.4-0.4-3.2-1.1        c-0.8-0.8-1.2-1.9-1.2-3.3V35.4z"/>
					</g>
				</g>
			</g>
		</g>
	</g>
	<g>
		<path class="st5" d="M144.3,133.8c0.2-0.2,0.5-0.4,1-0.4h1.8c0.8,0,1.6,0.3,2.3,1c3.8,3.6,6.7,6.4,8.7,8.3c2,1.9,3.1,2.9,3.3,3.1    c0.4,0.2,0.7,0.4,0.9,0.4c0.6,0,0.9-0.7,0.9-2.2v-9.3c0-0.4,0.1-0.7,0.3-0.9c0.2-0.2,0.5-0.4,0.9-0.4h1.5c0.4,0,0.7,0.1,0.9,0.3    c0.2,0.2,0.4,0.5,0.4,1v17.4c0,0.4-0.1,0.7-0.3,0.9c-0.2,0.2-0.5,0.4-1,0.4h-1.7c-1,0-1.9-0.5-2.7-1.5l-11.7-11.1    c-0.4-0.2-0.7-0.3-0.9-0.3c-0.6,0-0.9,0.7-0.9,2.2v9.4c0,0.4-0.1,0.7-0.3,0.9c-0.2,0.2-0.5,0.4-1,0.4h-1.5c-0.4,0-0.7-0.1-0.9-0.3    c-0.2-0.2-0.4-0.5-0.4-1v-17.4C144,134.3,144.1,134,144.3,133.8z"/>
		<path class="st5" d="M186.9,134.7c0-0.4,0.1-0.7,0.3-0.9c0.2-0.2,0.5-0.4,1-0.4h20.7c0.4,0,0.7,0.1,0.9,0.3c0.2,0.2,0.4,0.5,0.4,1    v1.5c0,0.4-0.1,0.7-0.3,0.9c-0.2,0.2-0.5,0.4-1,0.4h-20.7c-0.4,0-0.7-0.1-0.9-0.3c-0.2-0.2-0.4-0.5-0.4-1V134.7z M186.9,142.7    c0-0.4,0.1-0.7,0.3-0.9c0.2-0.2,0.5-0.3,1-0.3h20.7c0.4,0,0.7,0.1,0.9,0.3c0.2,0.2,0.4,0.5,0.4,0.9v1.5c0,0.4-0.1,0.7-0.3,0.9    c-0.2,0.2-0.5,0.4-1,0.4h-20.7c-0.4,0-0.7-0.1-0.9-0.3c-0.2-0.2-0.4-0.5-0.4-1V142.7z M186.9,150.7c0-0.4,0.1-0.7,0.3-0.9    c0.2-0.2,0.5-0.4,1-0.4h20.7c0.4,0,0.7,0.1,0.9,0.3c0.2,0.2,0.4,0.5,0.4,0.9v1.5c0,0.4-0.1,0.7-0.3,0.9s-0.5,0.4-1,0.4h-20.7    c-0.4,0-0.7-0.1-0.9-0.3c-0.2-0.2-0.4-0.5-0.4-0.9V150.7z"/>
		<path class="st5" d="M230.1,133.8c0.2-0.2,0.5-0.4,1-0.4h20.7c0.4,0,0.7,0.1,0.9,0.3c0.2,0.2,0.4,0.5,0.4,1v1.5    c0,0.4-0.1,0.7-0.3,0.9c-0.2,0.2-0.5,0.4-1,0.4H246c-1.4,0-2.1,0.3-2.3,0.8c-0.1,0.2-0.2,0.4-0.2,0.7c0,0.3-0.1,0.7-0.1,1.1v12.1    c0,0.4-0.1,0.7-0.3,0.9c-0.2,0.2-0.5,0.4-1,0.4h-1.5c-0.4,0-0.7-0.1-0.9-0.3c-0.2-0.2-0.4-0.5-0.4-1V140c0-1.4-0.2-2.1-0.7-2.3    c-0.3-0.2-0.9-0.3-1.8-0.3h-5.8c-0.4,0-0.7-0.1-0.9-0.3c-0.2-0.2-0.4-0.5-0.4-1v-1.5C229.8,134.3,229.9,134,230.1,133.8z"/>
		<path class="st5" d="M277.9,135.7l5.2,10.5c0.3,0.6,0.7,0.9,1.2,0.9c0.7,0,1.4-1.1,2.2-3.3c0.1-0.3,0.1-0.5,0.1-0.8    c0-0.6-0.5-1.8-1.5-3.7c-1.5-3-2.2-4.6-2.2-4.7v-0.3c0.1-0.5,0.4-0.8,1.1-0.8h1.7c1.1,0,1.8,0.7,2.3,1.9c0.5,0.8,0.9,1.2,1.4,1.2    c0.5,0,1-0.6,1.6-1.8c0.5-0.9,1.1-1.4,2-1.4h1.8c0.6,0,1,0.3,1.1,0.8v0.1c0,0.3-0.4,1.2-1.2,2.7c-0.8,1.5-1.4,2.7-1.8,3.6    c-0.4,0.9-0.7,1.5-0.7,1.7l-0.1,0.6c0,0.7,0.5,1.9,1.5,3.5c0.3,0.3,0.6,0.5,0.9,0.5c0.6,0,1.3-0.9,2-2.6l5.1-10.1    c0.5-0.6,1-0.9,1.7-0.9h1.8c0.5,0,0.9,0.2,1.1,0.6l0,0.2v0.3c0,0.1-0.1,0.4-0.4,1c-0.3,0.6-0.7,1.4-1.2,2.5l-7.1,14.3    c-0.5,0.7-1,1-1.8,1h-2.3c-1,0-1.8-0.8-2.4-2.4c-0.6-1.1-1-1.7-1.5-1.7h-0.3c-0.5,0-1.2,0.9-2,2.8c-0.5,0.8-1.1,1.2-1.9,1.2h-2.3    c-0.9,0-1.5-0.5-2-1.5c-5.5-11.1-8.3-16.8-8.5-17.3c0,0,0-0.1,0-0.2v-0.3c0-0.4,0.3-0.7,1-0.8h1.9    C276.6,133.4,277.4,134.2,277.9,135.7z"/>
		<path class="st5" d="M338.9,133.4c3.3,0,6,1.4,8.1,4.3c1.1,1.7,1.6,3.5,1.6,5.3v0.7c0,3.1-1.3,5.7-4,7.8c-1.8,1.2-3.6,1.8-5.7,1.8    h-5.6c-3,0-5.5-1.2-7.5-3.6c-1.4-1.8-2.2-3.9-2.2-6.1v-0.6c0-3,1.2-5.5,3.6-7.5c1.8-1.4,3.9-2.2,6.1-2.2H338.9z M327.7,143.4    c0,1.7,0.8,3.2,2.4,4.6c1,0.9,2.6,1.3,4.7,1.3h1.5c2.4,0,3.9-0.2,4.4-0.5c1.3-0.6,2.4-1.5,3.1-2.9c0.4-0.9,0.6-1.7,0.6-2.6    c0-1.8-0.8-3.3-2.5-4.7c-1-0.8-2.6-1.2-4.7-1.2h-1.4c-2.4,0-3.8,0.2-4.3,0.5c-0.6,0.2-1.4,0.7-2.3,1.6    C328.2,140.9,327.7,142.2,327.7,143.4z"/>
		<path class="st5" d="M368.6,133.8c0.2-0.2,0.5-0.4,1-0.4h4.7h11.9c2.5,0,4.2,1.2,5.2,3.6c0.2,0.6,0.3,1.2,0.3,1.8v0.2    c0,2.4-1.2,4.1-3.6,5.1c-0.3,0.1-0.7,0.2-1.4,0.2c-0.7,0.1-1.6,0.1-2.8,0.1c-0.8,0.1-1.2,0.4-1.2,0.7v0.1c0,0.5,0.6,1.1,1.7,1.9    l6.2,5.2c0.2,0.2,0.2,0.4,0.2,0.6c0,0.3-0.4,0.5-1.1,0.5H386c-0.9,0-1.8-0.4-2.7-1.3c-5.4-4.5-8.2-6.8-8.3-6.9    c-0.6-0.5-0.8-1.2-0.8-2.1v-1.2c0-1,0.4-1.5,1.3-1.5h8.1c1.8,0,2.8-0.2,3-0.5c0.3-0.2,0.5-0.6,0.5-1c0-0.6-0.4-1-1.1-1.3    c-0.2-0.1-1-0.2-2.2-0.2h-8.9c-1.4,0-2.1,0.3-2.3,0.8c-0.2,0.3-0.2,0.6-0.2,1c0,3.3,0,6,0,8.1c0,2.2,0,3.8,0,4.9    c0,0.3-0.1,0.6-0.3,0.8c-0.2,0.2-0.5,0.4-0.9,0.4h-1.5c-0.4,0-0.7-0.1-0.9-0.3c-0.2-0.2-0.4-0.5-0.4-1v-17.4    C368.2,134.3,368.3,134,368.6,133.8z"/>
		<path class="st5" d="M411.1,134.7c0-0.4,0.1-0.7,0.3-0.9c0.2-0.2,0.5-0.4,0.9-0.4h1.5c0.8,0.1,1.3,0.5,1.3,1.2c0,1.4,0,2.8,0,4.3    c0,1.5,0,3,0,4.5c0,1.5,0,3,0,4.5c0,1.5,0,2.9,0,4.3c0,0.3-0.1,0.6-0.3,0.8c-0.2,0.2-0.5,0.4-0.9,0.4h-1.5c-0.4,0-0.7-0.1-0.9-0.3    s-0.4-0.5-0.4-0.9V134.7z M433.6,133.7c0.2,0,0.4,0.1,0.6,0.3c0.1,0.2,0.2,0.4,0.2,0.7v2.1c0,0.9-0.6,1.6-1.9,2    c-2.6,1.1-4.6,2-6,2.7c-1.4,0.6-2.2,1-2.4,1.1c-0.4,0.3-0.6,0.6-0.6,0.9c0,0.6,0.8,1.1,2.4,1.7c2.3,1,4.1,1.8,5.4,2.4    c1.3,0.6,2,0.9,2.3,1c0.6,0.4,0.9,0.9,0.9,1.5v2.1c0,0.6-0.2,0.9-0.7,1h-0.1c-0.3,0-1.4-0.5-3.3-1.4c-3.8-1.8-6.7-3.1-8.8-4.1    c-2-1-3.3-1.5-3.6-1.7c-0.5-0.4-0.7-0.9-0.7-1.7v-1.6c0-1,0.4-1.6,1.2-2c4.9-2.3,8.6-4,11-5.1c2.5-1.1,3.8-1.7,4-1.8    C433.3,133.7,433.4,133.7,433.6,133.7z"/>
		<path class="st5" d="M454.4,149.8c0.2-0.2,0.5-0.4,1-0.4h13.2c2,0,3.1-0.2,3.4-0.5c0.8-0.5,1.2-1.2,1.2-2c0-1-0.6-1.8-1.8-2.3    c-0.2-0.2-1.2-0.2-2.8-0.2h-8.9c-2.8,0-4.6-1.3-5.5-3.9c-0.1-0.5-0.2-1-0.2-1.5v-0.1c0-2.4,1.1-4,3.3-5.1c0.6-0.2,1.4-0.4,2.2-0.4    h16.7c0.4,0,0.7,0.1,0.9,0.3c0.2,0.2,0.4,0.5,0.4,1v1.5c0,0.4-0.1,0.7-0.3,0.9c-0.2,0.2-0.5,0.4-0.9,0.4h-14.4    c-1.7,0-2.7,0.2-2.9,0.5c-0.3,0.2-0.4,0.5-0.4,0.9c0,0.7,0.5,1.2,1.6,1.3c0.4,0.1,1,0.1,1.9,0.1h8.9c2.8,0,4.8,1.3,6,3.8    c0.3,0.8,0.5,1.7,0.5,2.7v0.1c0,2.5-1.1,4.4-3.2,5.7c-1,0.5-2,0.8-3.2,0.8h-15.6c-0.4,0-0.7-0.1-0.9-0.3c-0.2-0.2-0.4-0.5-0.4-0.9    v-1.5C454.1,150.3,454.2,150,454.4,149.8z"/>
	</g>
</g>
</svg>