<svg id="svg2" xmlns="http://www.w3.org/2000/svg" viewBox="0 0 900 224.6"><title>snLogoWhite</title><rect x="722.9" y="135.8" width="163.7" height="22.6" fill="#f7f7f7"/><rect x="545.5" y="135.8" width="163.7" height="22.6" fill="#f7f7f7"/><rect x="368.1" y="135.8" width="163.7" height="22.6" fill="#f7f7f7"/><rect x="190.8" y="135.8" width="163.7" height="22.6" fill="#f7f7f7"/><rect x="13.4" y="135.8" width="163.7" height="22.6" fill="#f7f7f7"/><path d="M76.7,85.9a6.1,6.1,0,0,1,4.7-1.8h64.8c9.6,0,15.2-.9,16.6-2.6,4.1-2.7,6-5.9,6-9.9,0-4.8-3-8.6-8.9-11.2-1.2-.8-5.9-1.2-13.7-1.2H102.6c-13.7,0-22.8-6.5-27-19.3a33.34,33.34,0,0,1-.9-7.5v-.3c0-11.6,5.3-19.9,16-24.9a38.38,38.38,0,0,1,10.7-1.5h81.9a6,6,0,0,1,4.4,1.7,6.1,6.1,0,0,1,1.8,4.7v7.2a6.79,6.79,0,0,1-1.5,4.5,6,6,0,0,1-4.7,1.8H112.8c-8.6,0-13.3.9-14.2,2.7a5.34,5.34,0,0,0-2,4.5c0,3.6,2.6,5.7,7.8,6.6a64.08,64.08,0,0,0,9.3.5h43.9c13.6,0,23.4,6.2,29.4,18.7a32.87,32.87,0,0,1,2.6,13.3V72c0,12.2-5.3,21.7-15.7,28a31.58,31.58,0,0,1-15.5,3.9H81.5a6.11,6.11,0,0,1-4.5-1.7,6,6,0,0,1-1.8-4.7V90.3A5.12,5.12,0,0,1,76.7,85.9Z" fill="#f7f7f7"/><path d="M203.6,7.5a6.1,6.1,0,0,1,4.7-1.8h7.2a6,6,0,0,1,6.3,6.4v32c0,11.8.9,18.7,2.6,21.1A30.91,30.91,0,0,0,239.3,81c3.8,2.1,10.4,3.2,19.9,3.2,10.6,0,17.8-1.5,21.7-4.4,6.5-3.6,11.2-9.5,13.9-17.3,1.1-2.3,1.7-9.3,1.7-21.3V12.1A6.79,6.79,0,0,1,298,7.6a6,6,0,0,1,4.7-1.8h7.2a6,6,0,0,1,6.3,6.4V56.8c0,15.2-6.5,27.9-19.6,38.3a47.87,47.87,0,0,1-28,9h-19c-14.6,0-27-5.9-37.1-17.5a47.19,47.19,0,0,1-10.7-30.1V12.1A7.15,7.15,0,0,1,203.6,7.5Z" fill="#f7f7f7"/><path d="M330.2,7.5A6.33,6.33,0,0,1,335,5.7h9c4.1,0,7.8,1.7,11.2,5.1,18.8,17.9,33.2,31.5,43,40.7S413.6,66,414.6,67a11.66,11.66,0,0,0,4.7,1.8c2.9,0,4.2-3.6,4.2-11V12.1A6.79,6.79,0,0,1,425,7.6a5.82,5.82,0,0,1,4.7-1.8h7.2a6,6,0,0,1,6.3,6.4V97.8a6.44,6.44,0,0,1-1.7,4.5,6.1,6.1,0,0,1-4.7,1.8h-8.6c-4.8,0-9.2-2.4-13.3-7.2L357.2,42.3a8.76,8.76,0,0,0-4.4-1.5c-2.9,0-4.2,3.6-4.2,10.9V97.8a6.44,6.44,0,0,1-1.7,4.5,6.1,6.1,0,0,1-4.7,1.8H335a6,6,0,0,1-6.3-6.4V12.1A6.53,6.53,0,0,1,330.2,7.5Z" fill="#f7f7f7"/><path d="M454,11.6a5.91,5.91,0,0,1,5.9-5.9h52.8c12.2,0,20.8,5.9,25.5,17.6a28.57,28.57,0,0,1,1.2,8.7v1.1c0,11.9-5.9,20.2-17.5,25a30.28,30.28,0,0,1-7.1,1.2c-3.5.3-8,.5-13.7.5q-5.7.9-5.7,3.6v.3c0,2.4,2.7,5.6,8.1,9.3l30.3,25.5a4.32,4.32,0,0,1,1.1,3.2c0,1.7-1.8,2.4-5.1,2.4H512.5c-4.2,0-8.6-2.3-13.4-6.6-26.5-22-40.2-33.3-40.9-34.1-2.7-2.4-4.1-5.9-4.1-10.4V47.1c0-4.8,2.1-7.2,6.5-7.2h39.8c8.7,0,13.7-.8,14.9-2.4a5.25,5.25,0,0,0,2.4-4.8c0-3-1.8-5.1-5.1-6.2-1.1-.6-4.8-.9-11-.9H460a5.91,5.91,0,0,1-5.9-5.9Z" fill="#f7f7f7"/><path d="M456.9,75.7,486.7,101a1.84,1.84,0,0,1-1.2,3.2H455.8a1.73,1.73,0,0,1-1.8-1.8V77A1.77,1.77,0,0,1,456.9,75.7Z" fill="#f7f7f7"/><path d="M553.2,7.5a6.1,6.1,0,0,1,4.7-1.8h7.2a6,6,0,0,1,4.4,1.7,6.1,6.1,0,0,1,1.8,4.7V97.7a6.79,6.79,0,0,1-1.5,4.5,6,6,0,0,1-4.7,1.8h-7.2a6,6,0,0,1-6.3-6.4V12.1C551.7,10.1,552.1,8.6,553.2,7.5Z" fill="#f7f7f7"/><path d="M585.6,85.9a6.1,6.1,0,0,1,4.7-1.8h64.8c9.6,0,15.2-.9,16.6-2.6,4.1-2.7,6-5.9,6-9.9,0-4.8-3-8.6-8.9-11.2-1.2-.8-5.9-1.2-13.7-1.2H611.5c-13.7,0-22.8-6.5-27-19.3a33.34,33.34,0,0,1-.9-7.5v-.3c0-11.6,5.3-19.9,16-24.9a38.38,38.38,0,0,1,10.7-1.5h81.9a6,6,0,0,1,4.4,1.7,6.49,6.49,0,0,1,1.8,4.7v7.2a6.79,6.79,0,0,1-1.5,4.5,6,6,0,0,1-4.7,1.8H621.5c-8.6,0-13.3.9-14.2,2.7a5.34,5.34,0,0,0-2,4.5c0,3.6,2.6,5.7,7.8,6.6a64.08,64.08,0,0,0,9.3.5h43.9c13.6,0,23.4,6.2,29.4,18.7a32.87,32.87,0,0,1,2.6,13.3V72c0,12.2-5.3,21.7-15.7,28a31.58,31.58,0,0,1-15.5,3.9H590.2a6.11,6.11,0,0,1-4.5-1.7,6,6,0,0,1-1.8-4.7V90.3A6,6,0,0,1,585.6,85.9Z" fill="#f7f7f7"/><path d="M710.9,12.1a6,6,0,0,1,6.4-6.3H819.1a6,6,0,0,1,6.3,6.4v7.2a6.44,6.44,0,0,1-1.7,4.5,6.1,6.1,0,0,1-4.7,1.8H717.2a6.44,6.44,0,0,1-4.5-1.7,6.1,6.1,0,0,1-1.8-4.7V12.1Zm0,78.5a6.44,6.44,0,0,1,1.7-4.5,6.1,6.1,0,0,1,4.7-1.8H819.1a6.44,6.44,0,0,1,4.5,1.7,6,6,0,0,1,1.8,4.7v7.2a6.44,6.44,0,0,1-1.7,4.5,6.1,6.1,0,0,1-4.7,1.8H717.2a6.11,6.11,0,0,1-4.5-1.7,6,6,0,0,1-1.8-4.7V90.6Z" fill="#f7f7f7"/><path d="M710.9,51.1a5.87,5.87,0,0,1,6.4-6.2h58.2a6.79,6.79,0,0,1,4.5,1.5,5.82,5.82,0,0,1,1.8,4.7v7.4a6.44,6.44,0,0,1-1.7,4.5,6.1,6.1,0,0,1-4.7,1.8H717.2a6,6,0,0,1-6.3-6.4V51.1Z" fill="#f7f7f7"/><path d="M213.6,190.7a2,2,0,0,1,1.4-.5h2.6a4.22,4.22,0,0,1,3.2,1.5c5.4,5.1,9.5,9,12.4,11.8s4.4,4.2,4.7,4.5a3.94,3.94,0,0,0,1.4.5c.8,0,1.2-1.1,1.2-3.2V192a2.65,2.65,0,0,1,.5-1.4,2,2,0,0,1,1.4-.5h2.1a2.39,2.39,0,0,1,1.4.5,2,2,0,0,1,.5,1.4v24.7a2.65,2.65,0,0,1-.5,1.4,2,2,0,0,1-1.4.5h-2.4a5.12,5.12,0,0,1-3.8-2.1l-16.6-15.7a3.34,3.34,0,0,0-1.2-.5c-.8,0-1.2,1.1-1.2,3.2v13.3a2.65,2.65,0,0,1-.5,1.4,2,2,0,0,1-1.4.5h-2.1a1.74,1.74,0,0,1-1.9-1.9V192A1.08,1.08,0,0,1,213.6,190.7Z" fill="#f7f7f7"/><path d="M274,192a1.74,1.74,0,0,1,1.9-1.9h29.4a2.39,2.39,0,0,1,1.4.5,2,2,0,0,1,.5,1.4v2.1a2.65,2.65,0,0,1-.5,1.4,2,2,0,0,1-1.4.5H275.9a2.65,2.65,0,0,1-1.4-.5,2,2,0,0,1-.5-1.4Zm0,11.3a2.39,2.39,0,0,1,.5-1.4,2,2,0,0,1,1.4-.5h29.4a2.65,2.65,0,0,1,1.4.5,2,2,0,0,1,.5,1.4v2.1a2.65,2.65,0,0,1-.5,1.4,2,2,0,0,1-1.4.5H275.9a1.74,1.74,0,0,1-1.9-1.9Zm0,11.4a2.39,2.39,0,0,1,.5-1.4,2,2,0,0,1,1.4-.5h29.4a2.65,2.65,0,0,1,1.4.5,2,2,0,0,1,.5,1.4v2.1a2.65,2.65,0,0,1-.5,1.4c-.3.5-.8.5-1.4.5H275.9a1.74,1.74,0,0,1-1.9-1.9Z" fill="#f7f7f7"/><path d="M335.4,190.7a2,2,0,0,1,1.4-.5h29.4a2.39,2.39,0,0,1,1.4.5,2,2,0,0,1,.5,1.4v2.1a2.65,2.65,0,0,1-.5,1.4,2,2,0,0,1-1.4.5H358c-2,0-3,.3-3.3,1.1a1.4,1.4,0,0,0-.3.9c0,.5-.2.9-.2,1.5v17.3a2.65,2.65,0,0,1-.5,1.4,2,2,0,0,1-1.4.5h-2.1a2.39,2.39,0,0,1-1.4-.5,2,2,0,0,1-.5-1.4V199.7c0-2-.3-3-1.1-3.3a5.39,5.39,0,0,0-2.6-.5h-8.1a2.65,2.65,0,0,1-1.4-.5,2,2,0,0,1-.5-1.4v-2.1A12.49,12.49,0,0,0,335.4,190.7Z" fill="#f7f7f7"/><path d="M403.3,193.4l7.4,14.9a2.14,2.14,0,0,0,1.8,1.2c.9,0,2-1.5,3.2-4.7a2.56,2.56,0,0,0,.2-1.1c0-.9-.8-2.6-2.3-5.3a63.36,63.36,0,0,1-3.2-6.8v-.3a1.36,1.36,0,0,1,1.5-1.2h2.4q2.25,0,3.3,2.7c.6,1.2,1.4,1.8,2,1.8.8,0,1.5-.9,2.3-2.6a2.87,2.87,0,0,1,2.9-2h2.6c.9,0,1.5.5,1.5,1.2v.2c0,.5-.6,1.7-1.7,3.8s-2,3.9-2.6,5.1-.9,2.1-1.1,2.4l-.2.8c0,1.1.8,2.7,2.1,5a2.05,2.05,0,0,0,1.4.8c.9,0,1.8-1.2,2.9-3.6l7.2-14.3a2.94,2.94,0,0,1,2.4-1.4h2.6a1.54,1.54,0,0,1,1.5.8v.6a6.76,6.76,0,0,1-.6,1.5q-.75,1.35-1.8,3.6l-10.1,20.4a3.11,3.11,0,0,1-2.6,1.5h-3.2c-1.5,0-2.6-1.1-3.5-3.3-.8-1.5-1.5-2.4-2.1-2.4H419c-.8,0-1.7,1.4-2.9,3.9a2.85,2.85,0,0,1-2.6,1.8h-3.3a3.3,3.3,0,0,1-2.9-2.1c-7.8-15.7-11.8-24-12.1-24.4v-.6c0-.6.5-1.1,1.5-1.2h2.7C401.4,190.2,402.4,191.3,403.3,193.4Z" fill="#f7f7f7"/><path d="M489.7,190.2a13.58,13.58,0,0,1,11.5,6.2,14.28,14.28,0,0,1,2.3,7.5V205c0,4.4-2,8.1-5.7,11a14.18,14.18,0,0,1-8.1,2.6h-8a13.58,13.58,0,0,1-10.7-5.1,13.17,13.17,0,0,1-3-8.7V204a13.58,13.58,0,0,1,5.1-10.7,13.17,13.17,0,0,1,8.7-3C481.7,190.2,489.7,190.2,489.7,190.2Zm-15.8,14.2a8.6,8.6,0,0,0,3.5,6.6,10.58,10.58,0,0,0,6.6,1.8h2.1c3.5,0,5.6-.3,6.2-.8a9.14,9.14,0,0,0,4.4-4.1,8,8,0,0,0,.9-3.6c0-2.6-1.2-4.7-3.6-6.6-1.5-1.2-3.6-1.7-6.6-1.7h-2c-3.3,0-5.4.3-6,.8a10.42,10.42,0,0,0-3.3,2.3A8,8,0,0,0,473.9,204.4Z" fill="#f7f7f7"/><path d="M531.9,190.7a2,2,0,0,1,1.4-.5h23.5a7.23,7.23,0,0,1,7.7,7.7v.3q0,5.25-5.1,7.2a5.48,5.48,0,0,1-2.1.3,22.4,22.4,0,0,1-3.9.2c-1.1.2-1.7.5-1.7,1.1v.2q0,1.2,2.4,2.7l8.7,7.4a1.61,1.61,0,0,1,.3.9c0,.5-.5.8-1.5.8h-5a5.48,5.48,0,0,1-3.9-2c-7.7-6.3-11.6-9.6-11.8-9.8a3.92,3.92,0,0,1-1.2-3v-1.7q0-2.1,1.8-2.1H553c2.6,0,3.9-.3,4.4-.8a1.6,1.6,0,0,0,.8-1.4,1.8,1.8,0,0,0-1.5-1.8,9,9,0,0,0-3.2-.3H540.8c-2,0-3,.3-3.3,1.1a3.53,3.53,0,0,0-.3,1.4v18.6a1.85,1.85,0,0,1-.5,1.2,2,2,0,0,1-1.4.5h-2.1a2.39,2.39,0,0,1-1.4-.5,2,2,0,0,1-.5-1.4V192.3A4.87,4.87,0,0,1,531.9,190.7Z" fill="#f7f7f7"/><path d="M592.4,192a1.66,1.66,0,0,1,.5-1.2,2,2,0,0,1,1.4-.5h2.1c1.2.2,1.8.6,1.8,1.7v24.8a1.85,1.85,0,0,1-.5,1.2,2,2,0,0,1-1.4.5h-2.1a2.65,2.65,0,0,1-1.4-.5,2,2,0,0,1-.5-1.4l.1-24.6Zm31.8-1.3a1,1,0,0,1,.8.5,1.8,1.8,0,0,1,.3,1.1v3c0,1.2-.9,2.3-2.7,2.9-3.8,1.7-6.6,2.9-8.6,3.8s-3.2,1.4-3.3,1.5c-.6.5-.8.9-.8,1.2,0,.8,1.2,1.5,3.5,2.4,3.3,1.5,5.9,2.6,7.7,3.5s2.9,1.4,3.2,1.5a2.47,2.47,0,0,1,1.2,2.1v3a1.24,1.24,0,0,1-1.1,1.4h-.2c-.5,0-2-.6-4.7-2-5.4-2.4-9.5-4.4-12.5-5.7s-4.7-2.1-5.1-2.4a2.66,2.66,0,0,1-1.1-2.4v-2.3a3,3,0,0,1,1.7-2.9c6.9-3.2,12.2-5.6,15.7-7.2s5.4-2.4,5.7-2.6C623.9,190.7,623.9,190.7,624.2,190.7Z" fill="#f7f7f7"/><path d="M653.7,213.4a2,2,0,0,1,1.4-.5h18.7c2.7,0,4.4-.3,4.8-.8a3.38,3.38,0,0,0,1.8-2.9c0-1.4-.9-2.4-2.6-3.2a12.94,12.94,0,0,0-3.9-.3H661.4c-3.9,0-6.6-1.8-7.8-5.6a9.08,9.08,0,0,1-.3-2.3v-.2a7.41,7.41,0,0,1,4.7-7.2,9.93,9.93,0,0,1,3-.5h23.7a1.66,1.66,0,0,1,1.2.5,2,2,0,0,1,.5,1.4v2.1a2.65,2.65,0,0,1-.5,1.4,2,2,0,0,1-1.4.5H664.1c-2.4,0-3.8.3-4.1.8a1.45,1.45,0,0,0-.6,1.4c0,1.1.8,1.7,2.3,2a9.06,9.06,0,0,0,2.7.2h12.7a8.58,8.58,0,0,1,8.4,5.4,9.57,9.57,0,0,1,.8,3.8v.2a9.06,9.06,0,0,1-4.5,8.1,8.92,8.92,0,0,1-4.5,1.2H655.1a2.39,2.39,0,0,1-1.4-.5,2,2,0,0,1-.5-1.4v-2A2.73,2.73,0,0,1,653.7,213.4Z" fill="#f7f7f7"/></svg>