<svg width="0" height="0" class="hidden">
  <symbol version="1.1" id="line-chart1" xmlns="http://www.w3.org/2000/svg" xmlns:xlink="http://www.w3.org/1999/xlink" x="0px" y="0px" xml:space="preserve" viewBox="0 0 500.04 500.04">
    <g>
      <g>
        <path d="M484.746,457.732H59.238l71.284-95.644c0.044,0,0.084,0.016,0.128,0.016c3.552,0,6.832-1.02,9.704-2.688l72.188,31.416
			c2.776,7.392,9.856,12.696,18.208,12.696c10.752,0,19.5-8.748,19.5-19.496c0-2.392-0.492-4.66-1.284-6.776l83.044-127.064
			c9.996-0.584,17.968-8.668,18.316-18.732l120.048-82.36c1.996,0.696,4.108,1.152,6.34,1.152c10.752,0,19.5-8.752,19.5-19.5
			c0-10.752-8.748-19.5-19.5-19.5c-10.528,0-19.076,8.396-19.428,18.836l-120.048,82.36c-2-0.696-4.108-1.144-6.344-1.144
			c-10.752,0-19.504,8.744-19.504,19.492c0,2.392,0.492,4.66,1.284,6.78L229.63,364.64c-3.952,0.232-7.572,1.616-10.548,3.856
			l-69.46-30.22c-1.98-8.668-9.712-15.168-18.976-15.168c-10.752,0-19.5,8.748-19.5,19.496c0,1.96,0.38,3.828,0.924,5.612
			l-65.94,88.48V11.54C46.13,5.16,40.962,0,34.59,0S23.05,5.16,23.05,11.54v23.04h-7.776c-6.376,0-11.54,5.16-11.54,11.54
			c0,6.376,5.168,11.544,11.54,11.544h7.776v19.232h-7.776c-6.376,0-11.54,5.164-11.54,11.544c0,6.372,5.168,11.54,11.54,11.54
			h7.776v19.236h-7.776c-6.376,0-11.54,5.168-11.54,11.544c0,6.38,5.168,11.54,11.54,11.54h7.776v19.236h-7.776
			c-6.376,0-11.54,5.164-11.54,11.54c0,6.372,5.168,11.54,11.54,11.54h7.776v19.24h-7.776c-6.376,0-11.54,5.16-11.54,11.54
			c0,6.372,5.168,11.54,11.54,11.54h7.776v19.236h-7.776c-6.376,0-11.54,5.172-11.54,11.54c0,6.384,5.168,11.544,11.54,11.544h7.776
			v19.236h-7.776c-6.376,0-11.54,5.168-11.54,11.54c0,6.384,5.168,11.544,11.54,11.544h7.776v19.232h-7.776
			c-6.376,0-11.54,5.164-11.54,11.544c0,6.372,5.168,11.54,11.54,11.54h7.776v19.236h-7.776c-6.376,0-11.54,5.16-11.54,11.544
			c0,6.372,5.168,11.54,11.54,11.54h7.776v19.236h-7.776c-6.376,0-11.54,5.172-11.54,11.54c0,6.38,5.168,11.54,11.54,11.54h7.776
			v19.24h-7.776c-6.376,0-11.54,5.168-11.54,11.54c0,6.376,5.168,11.54,11.54,11.54h7.776v7.652c0,6.38,5.164,11.54,11.54,11.54
			c6.376,0,11.54-5.16,11.54-11.54v-7.652h19.236v7.652c0,6.38,5.164,11.54,11.54,11.54c6.372,0,11.54-5.16,11.54-11.54v-7.652
			h19.236v7.652c0,6.38,5.164,11.54,11.54,11.54c6.372,0,11.54-5.16,11.54-11.54v-7.652h19.236v7.652
			c0,6.38,5.164,11.54,11.54,11.54s11.54-5.16,11.54-11.54v-7.652h19.236v7.652c0,6.38,5.164,11.54,11.54,11.54
			s11.54-5.16,11.54-11.54v-7.652h19.236v7.652c0,6.38,5.164,11.54,11.54,11.54c6.372,0,11.536-5.16,11.536-11.54v-7.652h19.24
			v7.652c0,6.38,5.164,11.54,11.54,11.54c6.372,0,11.54-5.16,11.54-11.54v-7.652h19.236v7.652c0,6.38,5.168,11.54,11.54,11.54
			c6.38,0,11.544-5.16,11.544-11.54v-7.652h19.236v7.652c0,6.38,5.164,11.54,11.54,11.54c6.376,0,11.544-5.16,11.544-11.54v-7.652
			h19.232v7.652c0,6.38,5.168,11.54,11.544,11.54c6.376,0,11.54-5.16,11.54-11.54v-7.652h19.236v7.652
			c0,6.38,5.164,11.54,11.544,11.54c6.372,0,11.54-5.16,11.54-11.54v-7.652h15.464c6.376,0,11.54-5.164,11.54-11.54
			C496.282,462.9,491.118,457.732,484.746,457.732z"></path>
      </g>
    </g>
    <g></g>
    <g></g>
    <g></g>
    <g></g>
    <g></g>
    <g></g>
    <g></g>
    <g></g>
    <g></g>
    <g></g>
    <g></g>
    <g></g>
    <g></g>
    <g></g>
    <g></g>
  </symbol>
  <symbol version="1.1" id="molecular" xmlns="http://www.w3.org/2000/svg" xmlns:xlink="http://www.w3.org/1999/xlink" x="0px" y="0px" xml:space="preserve" viewBox="0 0 512 512">
    <g>
      <g>
        <path d="M510.101,415.754c-3.805-14.203-12.914-26.072-25.646-33.424c-12.733-7.351-27.567-9.306-41.769-5.499
			c-8.647,2.317-16.42,6.609-22.844,12.477l-96.291-55.593c1.832-6.263,2.833-12.877,2.833-19.724
			c0-33.057-22.915-60.85-53.69-68.367v-111.2c22.214-7.087,38.35-27.917,38.35-52.449c0-30.352-24.693-55.044-55.044-55.044
			s-55.044,24.693-55.044,55.044c0,24.532,16.136,45.361,38.35,52.449v111.201c-30.776,7.517-53.69,35.309-53.69,68.367
			c0,6.847,1.002,13.461,2.833,19.724l-96.291,55.593c-6.424-5.869-14.198-10.16-22.844-12.477
			c-14.201-3.805-29.036-1.853-41.769,5.499c-12.732,7.351-21.841,19.221-25.646,33.424c-3.805,14.201-1.853,29.035,5.499,41.769
			c7.351,12.733,19.221,21.842,33.424,25.646c4.742,1.271,9.554,1.9,14.336,1.9c9.537,0,18.952-2.502,27.432-7.398
			c12.733-7.351,21.842-19.221,25.646-33.424c2.317-8.647,2.486-17.524,0.617-26.022l96.326-55.614
			C218,376.009,236.036,384.378,256,384.378s37.999-8.37,50.822-21.766l96.326,55.614c-1.871,8.497-1.701,17.376,0.617,26.022
			c3.805,14.203,12.914,26.072,25.646,33.424c8.482,4.897,17.894,7.399,27.432,7.398c4.78,0,9.595-0.629,14.336-1.9
			c14.203-3.805,26.072-12.914,33.424-25.646C511.953,444.789,513.906,429.956,510.101,415.754z"></path>
      </g>
    </g>
    <g></g>
    <g></g>
    <g></g>
    <g></g>
    <g></g>
    <g></g>
    <g></g>
    <g></g>
    <g></g>
    <g></g>
    <g></g>
    <g></g>
    <g></g>
    <g></g>
    <g></g>
  </symbol>
  <symbol version="1.1" id="pen-ruler1" xmlns="http://www.w3.org/2000/svg" xmlns:xlink="http://www.w3.org/1999/xlink" x="0px" y="0px" xml:space="preserve" viewBox="0 0 512 512">
    <g>
      <g>
        <path d="M417.509,309.667c-0.002-0.002-55.625-55.625-55.625-55.625l92.008-92.008c0.009-0.009,46.19-46.19,46.19-46.19
			c7.685-7.685,11.918-17.939,11.918-28.869c0-10.932-4.233-21.185-11.918-28.87l-46.185-46.186C446.211,4.233,435.957,0,425.027,0
			c-10.932,0-21.185,4.232-28.871,11.919L257.959,150.115L110.238,2.396c-3.192-3.191-8.364-3.191-11.555,0L2.396,98.682
			c-3.191,3.191-3.191,8.364,0,11.554l130.389,130.389c1.596,1.595,3.688,2.393,5.778,2.393c2.091,0,4.182-0.797,5.778-2.393
			c3.191-3.191,3.191-8.364,0-11.554L19.728,104.459l11.554-11.554l124.612,124.611c1.596,1.595,3.688,2.393,5.778,2.393
			c2.09,0,4.182-0.797,5.778-2.393c3.191-3.191,3.191-8.364,0-11.554L42.837,81.35l61.623-61.624l19.142,19.142L106.27,56.201
			c-3.191,3.191-3.191,8.364,0,11.554c1.596,1.595,3.688,2.393,5.778,2.393c2.091,0,4.182-0.797,5.778-2.393l17.332-17.332
			l19.147,19.147l-17.332,17.332c-3.192,3.191-3.192,8.363-0.001,11.554c1.596,1.596,3.686,2.393,5.778,2.393
			c2.09,0,4.182-0.797,5.777-2.393l17.333-17.332l19.146,19.146l-17.333,17.333c-3.191,3.191-3.191,8.364,0,11.554
			c1.596,1.596,3.686,2.393,5.778,2.393c2.09,0,4.182-0.797,5.778-2.393l17.332-17.332l19.146,19.146l-17.332,17.333
			c-3.191,3.191-3.191,8.364,0,11.554c1.596,1.595,3.688,2.393,5.778,2.393c2.09,0,4.182-0.797,5.778-2.393l17.332-17.332
			l19.146,19.146L48.579,359.496c-0.216,0.216-0.415,0.442-0.601,0.675c-0.047,0.058-0.087,0.121-0.132,0.18
			c-0.138,0.183-0.27,0.367-0.391,0.559c-0.045,0.071-0.085,0.145-0.129,0.217c-0.111,0.188-0.216,0.38-0.31,0.575
			c-0.038,0.077-0.073,0.155-0.109,0.233c-0.09,0.202-0.171,0.404-0.244,0.611c-0.017,0.049-0.041,0.095-0.058,0.144L0.42,501.246
			c-0.978,2.936-0.215,6.172,1.974,8.361C3.952,511.164,6.04,512,8.173,512c0.864,0,1.736-0.137,2.583-0.419l138.556-46.186
			c0.053-0.017,0.102-0.044,0.156-0.062c0.199-0.071,0.395-0.149,0.59-0.235c0.084-0.037,0.167-0.075,0.249-0.115
			c0.19-0.093,0.376-0.194,0.56-0.303c0.076-0.045,0.154-0.088,0.229-0.135c0.187-0.119,0.368-0.248,0.547-0.383
			c0.063-0.047,0.129-0.09,0.19-0.139c0.232-0.186,0.459-0.385,0.674-0.6l197.824-197.824l19.146,19.146l-17.332,17.332
			c-3.191,3.191-3.191,8.364,0,11.554c1.596,1.595,3.688,2.393,5.778,2.393c2.09,0,4.182-0.797,5.778-2.393l17.332-17.332
			l19.146,19.146l-17.333,17.332c-3.191,3.191-3.191,8.364,0,11.554c1.596,1.596,3.686,2.393,5.778,2.393
			c2.091,0,4.182-0.797,5.778-2.393l17.332-17.332l19.146,19.146l-17.332,17.332c-3.192,3.191-3.192,8.363-0.001,11.554
			c1.596,1.596,3.686,2.393,5.778,2.393c2.091,0,4.182-0.797,5.777-2.393l17.333-17.332l19.147,19.146l-17.332,17.333
			c-3.191,3.191-3.191,8.364,0,11.554c1.596,1.595,3.688,2.393,5.778,2.393s4.182-0.797,5.778-2.393l17.332-17.332l19.143,19.142
			l-61.624,61.624L306.043,344.549c-3.192-3.191-8.364-3.191-11.555,0s-3.191,8.364,0,11.554l124.612,124.612l-11.554,11.554
			L282.929,367.66c-3.194-3.192-8.366-3.19-11.555,0c-3.191,3.191-3.191,8.364,0,11.554l130.389,130.39
			c1.596,1.596,3.686,2.393,5.778,2.393c2.09,0,4.182-0.797,5.778-2.393l96.288-96.287c1.532-1.532,2.392-3.61,2.392-5.777
			c0-2.167-0.861-4.245-2.392-5.777L417.509,309.667z M407.71,23.473c4.599-4.599,10.75-7.132,17.317-7.132
			c6.566,0,12.716,2.533,17.315,7.132l46.185,46.186c9.548,9.548,9.548,25.084,0,34.632l-40.408,40.408l-80.817-80.817
			L407.71,23.473z M21.09,490.911l13.746-41.235l27.489,27.49L21.09,490.911z M79.656,471.39l-39.044-39.045l17.315-51.946
			l73.676,73.676L79.656,471.39z M146.728,446.089l-80.817-80.817l259.045-259.046l34.632,34.631L117.858,382.589
			c-3.191,3.191-3.191,8.364,0,11.554c1.596,1.595,3.688,2.393,5.778,2.393c2.091,0,4.182-0.797,5.778-2.393l241.73-241.73
			l17.315,17.315c1.596,1.595,3.688,2.393,5.778,2.393s4.182-0.797,5.778-2.393c3.191-3.191,3.191-8.364,0-11.554l-23.091-23.091
			c-0.003-0.003-40.411-40.411-40.411-40.411l19.236-19.236l80.817,80.817L146.728,446.089z"></path>
      </g>
    </g>
    <g></g>
    <g></g>
    <g></g>
    <g></g>
    <g></g>
    <g></g>
    <g></g>
    <g></g>
    <g></g>
    <g></g>
    <g></g>
    <g></g>
    <g></g>
    <g></g>
    <g></g>
  </symbol>
  <symbol version="1.1" id="pen-ruler2" xmlns="http://www.w3.org/2000/svg" xmlns:xlink="http://www.w3.org/1999/xlink" x="0px" y="0px" xml:space="preserve" viewBox="0 0 512 512">
    <g>
      <g>
        <path d="M504.499,378.496L382.003,256L486.4,151.603c19.959-19.968,19.959-52.446,0-72.405L432.802,25.6
			c-9.651-9.651-22.511-14.967-36.207-14.967c-13.696,0-26.547,5.316-36.198,14.967L256,129.997L133.504,7.501
			C128.7,2.697,122.189,0,115.405,0c-6.792,0-13.303,2.697-18.099,7.501L7.501,97.297c-10.001,10.001-10.001,26.206,0,36.207
			L129.997,256L7.501,378.496C2.697,383.3,0,389.811,0,396.604V486.4C0,500.54,11.46,512,25.6,512h89.805
			c6.793,0,13.303-2.697,18.099-7.501L256,382.003l122.496,122.496c10.001,10.001,26.206,10.001,36.207,0l89.796-89.796
			c4.804-4.804,7.501-11.315,7.501-18.108C512,389.811,509.303,383.3,504.499,378.496z M378.496,43.708
			c4.983-4.984,11.546-7.475,18.108-7.475s13.124,2.492,18.099,7.467l53.598,53.598c9.958,9.958,9.958,26.249,0,36.207
			l-17.544,17.544l-89.805-89.796L378.496,43.708z M377.6,114.099l20.301,20.301L96,436.301L75.699,416L377.6,114.099z
			 M25.6,115.396L115.405,25.6l13.252,13.252L99.755,67.755c-5,5-5,13.099,0,18.099c2.5,2.5,5.777,3.746,9.054,3.746
			s6.554-1.246,9.054-3.746l28.902-28.902l20.301,20.301l-16.102,16.102c-5.001,5.001-5.001,13.099,0,18.099
			c2.5,2.5,5.777,3.746,9.054,3.746s6.554-1.246,9.054-3.746l16.102-16.102l20.301,20.301l-28.902,28.902
			c-5.001,5-5.001,13.099,0,18.099c2.5,2.5,5.777,3.746,9.054,3.746s6.554-1.246,9.054-3.746l28.902-28.902l14.345,14.345
			l-89.83,89.805L25.6,115.396z M342.852,79.351L359.501,96L57.6,397.901l-16.648-16.648L342.852,79.351z M25.6,486.4v-84.301
			l84.301,84.301H25.6z M130.748,471.049L114.099,454.4L416,152.499l16.649,16.649L130.748,471.049z M396.604,486.4L274.099,363.904
			l89.805-89.805l14.345,14.345l-28.902,28.902c-2.5,2.5-3.746,5.777-3.746,9.054c0,3.277,1.246,6.554,3.746,9.054
			c5,5.001,13.099,5.001,18.099,0l28.902-28.902l20.301,20.301l-16.102,16.102c-2.5,2.5-3.746,5.777-3.746,9.054
			c0,3.277,1.246,6.554,3.746,9.054c5,5,13.099,5,18.099,0l16.102-16.102l20.301,20.301l-28.902,28.902
			c-2.5,2.5-3.746,5.777-3.746,9.054c0,3.277,1.246,6.554,3.746,9.054c5.001,5,13.099,5,18.099,0l28.902-28.902l13.252,13.227
			L396.604,486.4z"></path>
      </g>
    </g>
    <g></g>
    <g></g>
    <g></g>
    <g></g>
    <g></g>
    <g></g>
    <g></g>
    <g></g>
    <g></g>
    <g></g>
    <g></g>
    <g></g>
    <g></g>
    <g></g>
    <g></g>
  </symbol>
  <symbol xmlns="http://www.w3.org/2000/svg" viewBox="0 0 512 512" id="person">
    <title>ionicons-v5-j</title>
    <path d="M256,256A112,112,0,1,0,144,144,112,112,0,0,0,256,256Zm0,32c-69.42,0-208,42.88-208,128v64H464V416C464,330.88,325.42,288,256,288Z"></path>
  </symbol>
  <symbol version="1.1" id="search" xmlns="http://www.w3.org/2000/svg" xmlns:xlink="http://www.w3.org/1999/xlink" x="0px" y="0px" xml:space="preserve" viewBox="0 0 489.713 489.713">
    <g>
      <path d="M483.4,454.444l-121.3-121.4c28.7-35.2,46-80,46-128.9c0-112.5-91.5-204.1-204.1-204.1S0,91.644,0,204.144
		s91.5,204,204.1,204c48.8,0,93.7-17.3,128.9-46l121.3,121.3c8.3,8.3,20.9,8.3,29.2,0S491.8,462.744,483.4,454.444z M40.7,204.144
		c0-90.1,73.2-163.3,163.3-163.3s163.4,73.3,163.4,163.4s-73.3,163.4-163.4,163.4S40.7,294.244,40.7,204.144z"></path>
    </g>
    <g></g>
    <g></g>
    <g></g>
    <g></g>
    <g></g>
    <g></g>
    <g></g>
    <g></g>
    <g></g>
    <g></g>
    <g></g>
    <g></g>
    <g></g>
    <g></g>
    <g></g>
  </symbol>
  <symbol version="1.1" id="search2" xmlns="http://www.w3.org/2000/svg" xmlns:xlink="http://www.w3.org/1999/xlink" x="0px" y="0px" xml:space="preserve" viewBox="0 0 489.7 489.7">
    <g>
      <path d="M483.4,454.4L362.1,333c28.7-35.2,46-80,46-128.9C408.1,91.6,316.6,0,204,0S0,91.6,0,204.1s91.5,204,204.1,204
		c48.8,0,93.7-17.3,128.9-46l121.3,121.3c8.3,8.3,20.9,8.3,29.2,0S491.8,462.7,483.4,454.4z M40.7,204.1
		C40.7,114,113.9,40.8,204,40.8s163.4,73.3,163.4,163.4S294.1,367.6,204,367.6S40.7,294.2,40.7,204.1z"></path>
    </g>
    <g>
      <g>
        <path d="M229.2,235.9L229.2,235.9c-1.2,3.1,0.5,6.6,3.7,7.7c0.7,0.2,1.5,0.4,2.2,0.4c2.6,0,5-1.5,6-3.9c0-0.1,0.1-0.1,0.1-0.2
			c1.1-3.1-0.6-6.5-3.9-7.6C233.9,231.2,230.3,232.8,229.2,235.9z"></path>
        <path d="M203.2,246.3h-0.3c-3.5,0-6.3,2.7-6.3,6c0,3.3,2.9,6,6.3,6h0.4c3.5,0,6.3-2.7,6.3-6C209.6,248.9,206.8,246.3,203.2,246.3
			C203.3,246.3,203.2,246.3,203.2,246.3z"></path>
        <path d="M219.2,243.5l-0.3,0.1c-3.3,1.2-4.8,4.7-3.6,7.7c1,2.4,3.4,3.8,5.9,3.8c0.8,0,1.6-0.1,2.3-0.4l0.3-0.1
			c3.3-1.2,4.8-4.7,3.5-7.8C226.2,243.8,222.5,242.3,219.2,243.5z"></path>
        <path d="M186.9,243.7c-3.3-1.2-6.9,0.3-8.2,3.4c-1.3,3.1,0.3,6.5,3.6,7.7c0.1,0.1,0.3,0.1,0.4,0.1c0.7,0.3,1.5,0.4,2.3,0.4
			c2.6,0,5-1.5,5.9-3.8c1.2-3.1-0.4-6.5-3.7-7.7L186.9,243.7z"></path>
        <path d="M168.4,232.7c-3.3,1.2-4.8,4.7-3.6,7.7l0.1,0.2c1,2.3,3.4,3.7,5.9,3.7c0.8,0,1.6-0.1,2.4-0.4c3.2-1.2,4.8-4.7,3.5-7.8
			l0-0.1C175.4,233,171.7,231.5,168.4,232.7z"></path>
        <path d="M151.7,212.5c14,11.8,31.9,18.3,50.8,18.3c18.3,0,35.6-6,49.3-17c8,20.2,43.4,18.7,43.4,18.7v-89.1
			c0-48.8-42-88.4-93.9-88.4h-1c-43.7,0-51.6,26.7-51.6,26.7c-39.9,13-41.2,57.4-41.2,57.4v93.1
			C134.9,234.3,146.8,221.3,151.7,212.5z M202.5,215.9c-17,0-32.4-6.7-43.4-17.4c-10.5-10.2-17-24.2-17-39.5c0-5.2,0.8-10.2,2.2-15
			c8.6-4.8,21-13.5,26.6-25.8c0,0,9.5,10.4,27.9,20.4c3.8,2.1,8.1,4.1,12.7,6.1c13.8,5.8,31.1,10.6,51.6,11.6c0,0.9,0.1,1.9,0.1,2.8
			c0,15.3-6.5,29.2-17,39.5C235,209.2,219.6,215.9,202.5,215.9z"></path>
        <path d="M299.5,259.4l-42.2-13.8c-6.7-2.2-14,0.1-18.1,5.5l-36.2,48.1l-36.2-48.1c-4.1-5.4-11.5-7.6-18.1-5.5l-42.2,13.8
			c-6.2,2-10.4,7.6-10.4,13.8v31.8c0,8.2,7.1,14.9,15.8,14.9h90.9h0.3h90.9c8.7,0,15.8-6.7,15.8-14.9v-31.8
			C310,267,305.8,261.5,299.5,259.4z"></path>
      </g>
    </g>
  </symbol>
  <symbol version="1.1" id="structure" xmlns="http://www.w3.org/2000/svg" xmlns:xlink="http://www.w3.org/1999/xlink" x="0px" y="0px" xml:space="preserve" viewBox="0 0 95.8 95.8">
    <path d="M93.8,66.1h-5.5V42.7c0-1.1-0.9-2-2-2H52v-11h6.8c1.1,0,2-0.9,2-2V6c0-1.1-0.9-2-2-2H37.1c-1.1,0-2,0.9-2,2v21.7
	c0,1.1,0.9,2,2,2h6.8v11H9.5c-1.1,0-2,0.9-2,2v23.5H2c-1.1,0-2,0.9-2,2v21.7c0,1.1,0.9,2,2,2h21.7c1.1,0,2-0.9,2-2V68.1
	c0-1.1-0.9-2-2-2h-8.1V48.8h28.2v17.4h-7.1c-1.1,0-2,0.9-2,2v21.7c0,1.1,0.9,2,2,2h21.7c1.1,0,2-0.9,2-2V68.1c0-1.1-0.9-2-2-2H52
	V48.8h28.2v17.4h-8.1c-1.1,0-2,0.9-2,2v21.7c0,1.1,0.9,2,2,2h21.7c1.1,0,2-0.9,2-2V68.1C95.8,67,94.9,66.1,93.8,66.1z"></path>
  </symbol>
  <symbol version="1.1" id="group1" xmlns="http://www.w3.org/2000/svg" xmlns:xlink="http://www.w3.org/1999/xlink" x="0px" y="0px" xml:space="preserve" viewBox="0 0 490.2 490.2">
    <g>
      <g>
        <g>
          <g>
            <circle cx="175.5" cy="47.5" r="47.5"></circle>
          </g>
          <g>
            <path d="M314.7,112.3c-38.4,0-69.6,31.2-69.6,69.6c0-38.4-31.2-69.6-69.6-69.6s-69.6,31.2-69.6,69.6v47.9h139.2h139.2v-47.9
					C384.3,143.4,353.2,112.3,314.7,112.3z"></path>
          </g>
          <g>
            <circle cx="314.7" cy="47.5" r="47.5"></circle>
          </g>
        </g>
        <g>
          <g>
            <circle cx="105.9" cy="307.9" r="47.5"></circle>
          </g>
          <g>
            <circle cx="245.1" cy="307.9" r="47.5"></circle>
          </g>
          <path d="M384.3,372.7c-38.4,0-69.6,31.2-69.6,69.6c0-38.5-31.2-69.6-69.6-69.6c-38.4,0-69.6,31.2-69.6,69.6
				c0-38.4-31.2-69.6-69.6-69.6c-38.4,0-69.6,31.2-69.6,69.6v47.9h139.2h139.2h139.2v-47.9C453.9,403.8,422.8,372.7,384.3,372.7z"></path>
          <g>
            <path d="M384.3,355.4c26.2,0,47.5-21.2,47.5-47.5c0-26.2-21.3-47.5-47.5-47.5s-47.5,21.2-47.5,47.5
					C336.9,334.1,358.1,355.4,384.3,355.4z"></path>
          </g>
        </g>
      </g>
    </g>
    <g></g>
    <g></g>
    <g></g>
    <g></g>
    <g></g>
    <g></g>
    <g></g>
    <g></g>
    <g></g>
    <g></g>
    <g></g>
    <g></g>
    <g></g>
    <g></g>
    <g></g>
  </symbol>
  <symbol version="1.1" id="group2" xmlns="http://www.w3.org/2000/svg" xmlns:xlink="http://www.w3.org/1999/xlink" x="0px" y="0px" xml:space="preserve" viewBox="0 0 611.998 611.998">
    <g>
      <g>
        <path d="M382.167,150.945c9.702,10.875,16.557,24.306,20.381,39.921c3.629,14.822,4.44,31.308,2.414,49.006
			c-0.751,6.546-1.861,13.96-3.479,21.802c12.532,12.135,28.95,19.839,50.296,19.838c59.22-0.005,80.529-59.3,86.105-108.006
			c6.872-60.004-21.498-105.163-86.105-105.163c-50.698,0-79.079,27.82-85.628,68.798
			C372.076,141.062,377.449,145.655,382.167,150.945z"></path>
        <path d="M611.973,422.704c-0.645-18.899-2.861-37.887-6.161-56.495c-3.992-22.539-9.08-55.585-28.759-70.275
			c-11.38-8.491-26.117-11.278-39.143-16.398c-6.343-2.492-12.024-4.967-17.354-7.784c-17.995,19.734-41.459,30.055-68.782,30.057
			c-21.261,0-40.172-6.281-56.001-18.358c-3.644,11.272-8.522,22.623-15.044,32.994c5.728,3.449,11.923,6.204,19.451,9.162
			c3.332,1.31,6.99,2.506,10.864,3.771c10.472,3.422,22.339,7.301,32.994,15.255c25.329,18.907,31.564,54.336,36.117,80.207
			l0.49,2.792c2.355,13.266,4.084,26.299,5.197,38.961c20.215-2.071,40.327-5.61,60.047-9.774
			c15.941-3.365,31.774-7.471,47.109-13.003C605.247,439.397,612.476,437.343,611.973,422.704z"></path>
        <path d="M160.216,281.511c21.345,0.002,37.762-7.703,50.295-19.838c-1.618-7.841-2.728-15.256-3.479-21.802
			c-2.026-17.697-1.214-34.184,2.414-49.006c3.823-15.614,10.679-29.046,20.381-39.921c4.718-5.291,10.09-9.884,16.014-13.805
			c-6.549-40.978-34.93-68.798-85.628-68.798c-64.606,0-92.977,45.16-86.106,105.163
			C79.687,222.212,100.996,281.507,160.216,281.511z"></path>
        <path d="M167.957,344.634c10.655-7.954,22.524-11.833,32.994-15.255c3.875-1.265,7.531-2.461,10.864-3.771
			c7.528-2.957,13.725-5.711,19.451-9.162c-6.52-10.369-11.4-21.722-15.043-32.994c-15.829,12.077-34.741,18.358-56.001,18.358
			c-27.322-0.001-50.788-10.324-68.782-30.057c-5.329,2.817-11.012,5.291-17.354,7.784c-13.026,5.12-27.763,7.907-39.143,16.398
			c-19.678,14.691-24.767,47.735-28.759,70.275c-3.3,18.607-5.516,37.595-6.161,56.495c-0.502,14.64,6.726,16.693,18.974,21.112
			c15.334,5.531,31.17,9.637,47.109,13.003c19.72,4.165,39.833,7.704,60.047,9.774c1.112-12.662,2.841-25.693,5.197-38.961
			l0.49-2.792C136.394,398.971,142.628,363.541,167.957,344.634z"></path>
        <path d="M470.351,429.405l-0.493-2.805c-4.258-24.197-10.091-57.334-32.191-73.832c-9.321-6.957-19.872-10.404-30.078-13.74
			c-4.019-1.313-7.812-2.554-11.427-3.974c-5.269-2.07-10.016-4.097-14.464-6.338c-18.684,24.932-44.58,38.059-75.383,38.062
			c-30.795,0-56.687-13.128-75.371-38.062c-4.449,2.243-9.196,4.269-14.467,6.34c-3.61,1.418-7.406,2.659-11.424,3.972
			c-10.207,3.335-20.761,6.784-30.079,13.74c-22.107,16.5-27.936,49.645-32.193,73.846l-0.493,2.795
			c-3.557,20.086-5.68,39.572-6.308,57.914c-0.737,21.519,12.62,26.316,24.403,30.55l1.269,0.457
			c14.17,5.112,30.021,9.492,48.457,13.388c37.646,7.946,68.197,11.74,96.138,11.938h0.072h0.072
			c27.946-0.199,58.495-3.992,96.135-11.938c18.439-3.894,34.289-8.274,48.453-13.387l1.268-0.456
			c11.786-4.233,25.147-9.029,24.41-30.553C476.03,468.931,473.906,449.447,470.351,429.405z"></path>
        <path d="M221.005,243.009c5.577,48.709,26.883,108.009,86.103,108.006s80.529-59.297,86.106-108.006
			c6.871-60.002-21.503-105.16-86.106-105.16C242.515,137.847,214.123,183.002,221.005,243.009z"></path>
      </g>
    </g>
    <g></g>
    <g></g>
    <g></g>
    <g></g>
    <g></g>
    <g></g>
    <g></g>
    <g></g>
    <g></g>
    <g></g>
    <g></g>
    <g></g>
    <g></g>
    <g></g>
    <g></g>
  </symbol>
</svg>